<svg xmlns="http://www.w3.org/2000/svg" xmlns:xlink="http://www.w3.org/1999/xlink" width="500" zoomAndPan="magnify" viewBox="0 0 375 374.999991" height="500" preserveAspectRatio="xMidYMid meet" version="1.0"><path fill="#65403d" d="M 157.328125 39.664062 C 110.863281 41.238281 115.355469 89.898438 122.613281 117.949219 C 126.671875 133.625 140.289062 138.058594 155.171875 144.550781 C 171.34375 151.601562 231.433594 138.671875 231.433594 138.671875 C 231.433594 138.671875 250.976562 144.324219 259.328125 118.824219 C 284.675781 41.46875 212.484375 0.1875 157.328125 39.664062 Z M 157.328125 39.664062 " fill-opacity="1" fill-rule="evenodd"/><path fill="#ffcebe" d="M 212.890625 157.621094 L 167.300781 157.621094 L 167.300781 218.171875 L 167.65625 264.179688 L 191.453125 263.914062 L 212.597656 265.085938 L 212.890625 218.171875 Z M 212.890625 157.621094 " fill-opacity="1" fill-rule="evenodd"/><path fill="#65403d" d="M 213.1875 197.835938 L 212.878906 171.488281 C 200.152344 168.886719 174.496094 165.210938 169.226562 183.554688 C 182.347656 196.152344 196.734375 196.8125 213.1875 197.835938 Z M 213.1875 197.835938 " fill-opacity="1" fill-rule="evenodd"/><path fill="#ffcebe" d="M 189.953125 213.765625 L 213.234375 213.964844 C 213.234375 213.964844 267.285156 240.082031 285.824219 260.738281 C 309.976562 287.648438 312.484375 374.316406 312.484375 374.316406 L 199.867188 374.722656 L 199.867188 374.796875 L 189.953125 374.761719 L 180.035156 374.796875 L 180.035156 374.722656 L 67.417969 374.316406 C 67.417969 374.316406 70.230469 287.796875 94.382812 260.890625 C 112.917969 240.234375 166.667969 213.964844 166.667969 213.964844 Z M 189.953125 213.765625 " fill-opacity="1" fill-rule="evenodd"/><path fill="#c2b1a1" d="M 192.066406 222.828125 L 218.523438 203.089844 L 229.410156 218.449219 C 229.410156 218.449219 273.582031 242.570312 286.730469 260.4375 C 314.621094 298.339844 312.484375 374.316406 312.484375 374.316406 L 199.867188 374.722656 L 199.867188 374.796875 L 189.953125 374.761719 L 180.035156 374.796875 L 180.035156 374.722656 L 67.417969 374.316406 C 67.417969 374.316406 64.121094 292.578125 93.171875 260.4375 C 111.425781 240.238281 149.304688 220.15625 149.304688 220.15625 L 160.320312 203.847656 Z M 192.066406 222.828125 " fill-opacity="1" fill-rule="evenodd"/><path fill="#65403d" d="M 191 248.910156 L 192.210938 361.292969 C 192.210938 361.777344 192.617188 362.167969 193.101562 362.160156 C 193.585938 362.15625 193.980469 361.757812 193.964844 361.273438 L 192.753906 248.890625 C 192.753906 248.40625 192.347656 248.015625 191.863281 248.023438 C 191.378906 248.027344 190.984375 248.425781 191 248.910156 Z M 191 248.910156 " fill-opacity="1" fill-rule="evenodd"/><path fill="#65403d" d="M 109.136719 309.078125 L 112.3125 370.855469 C 112.34375 371.472656 112.871094 371.949219 113.488281 371.917969 C 114.105469 371.886719 114.582031 371.359375 114.546875 370.742188 L 111.375 308.960938 C 111.34375 308.34375 110.816406 307.871094 110.199219 307.902344 C 109.578125 307.933594 109.105469 308.457031 109.136719 309.078125 Z M 109.136719 309.078125 " fill-opacity="1" fill-rule="evenodd"/><path fill="#65403d" d="M 270.449219 308.960938 L 267.273438 370.742188 C 267.242188 371.359375 267.714844 371.886719 268.335938 371.917969 C 268.953125 371.949219 269.480469 371.472656 269.511719 370.855469 L 272.683594 309.078125 C 272.714844 308.457031 272.242188 307.933594 271.625 307.902344 C 271.003906 307.871094 270.480469 308.34375 270.449219 308.960938 Z M 270.449219 308.960938 " fill-opacity="1" fill-rule="evenodd"/><path fill="#ffcebe" d="M 264.324219 130.449219 C 264.324219 131.398438 264.230469 132.335938 264.042969 133.269531 C 263.859375 134.199219 263.585938 135.101562 263.222656 135.976562 C 262.859375 136.855469 262.414062 137.6875 261.886719 138.476562 C 261.359375 139.265625 260.757812 139.996094 260.085938 140.667969 C 259.414062 141.339844 258.683594 141.9375 257.894531 142.464844 C 257.105469 142.992188 256.273438 143.4375 255.394531 143.800781 C 254.515625 144.164062 253.613281 144.4375 252.679688 144.621094 C 251.75 144.808594 250.808594 144.898438 249.859375 144.898438 C 248.910156 144.898438 247.96875 144.808594 247.039062 144.621094 C 246.105469 144.4375 245.203125 144.164062 244.324219 143.800781 C 243.449219 143.4375 242.613281 142.992188 241.824219 142.464844 C 241.035156 141.9375 240.304688 141.339844 239.632812 140.667969 C 238.960938 139.996094 238.363281 139.265625 237.835938 138.476562 C 237.308594 137.6875 236.863281 136.855469 236.5 135.976562 C 236.136719 135.101562 235.859375 134.199219 235.675781 133.269531 C 235.488281 132.335938 235.398438 131.398438 235.398438 130.449219 C 235.398438 129.5 235.488281 128.558594 235.675781 127.628906 C 235.859375 126.699219 236.132812 125.792969 236.5 124.917969 C 236.863281 124.039062 237.308594 123.207031 237.835938 122.417969 C 238.363281 121.628906 238.960938 120.898438 239.632812 120.230469 C 240.304688 119.558594 241.035156 118.960938 241.824219 118.433594 C 242.613281 117.90625 243.449219 117.460938 244.324219 117.097656 C 245.203125 116.734375 246.105469 116.460938 247.039062 116.273438 C 247.96875 116.089844 248.910156 115.996094 249.859375 115.996094 C 250.808594 115.996094 251.75 116.089844 252.683594 116.273438 C 253.613281 116.460938 254.515625 116.734375 255.394531 117.097656 C 256.273438 117.460938 257.105469 117.90625 257.894531 118.433594 C 258.683594 118.957031 259.414062 119.558594 260.085938 120.230469 C 260.757812 120.898438 261.355469 121.628906 261.886719 122.417969 C 262.414062 123.207031 262.859375 124.039062 263.222656 124.917969 C 263.585938 125.792969 263.859375 126.699219 264.042969 127.628906 C 264.230469 128.558594 264.324219 129.5 264.324219 130.449219 Z M 264.324219 130.449219 " fill-opacity="1" fill-rule="nonzero"/><path fill="#ffcebe" d="M 146.136719 130.449219 C 146.136719 131.398438 146.042969 132.335938 145.859375 133.269531 C 145.671875 134.199219 145.398438 135.101562 145.035156 135.976562 C 144.671875 136.855469 144.226562 137.6875 143.699219 138.476562 C 143.171875 139.265625 142.574219 139.996094 141.902344 140.667969 C 141.230469 141.339844 140.5 141.9375 139.710938 142.464844 C 138.917969 142.992188 138.085938 143.4375 137.207031 143.800781 C 136.332031 144.164062 135.425781 144.4375 134.496094 144.621094 C 133.566406 144.808594 132.625 144.898438 131.675781 144.898438 C 130.726562 144.898438 129.785156 144.808594 128.851562 144.621094 C 127.921875 144.4375 127.015625 144.164062 126.140625 143.800781 C 125.261719 143.4375 124.429688 142.992188 123.640625 142.464844 C 122.847656 141.9375 122.117188 141.339844 121.449219 140.667969 C 120.777344 139.996094 120.175781 139.265625 119.648438 138.476562 C 119.121094 137.6875 118.675781 136.855469 118.3125 135.976562 C 117.949219 135.101562 117.675781 134.199219 117.488281 133.269531 C 117.304688 132.335938 117.210938 131.398438 117.210938 130.449219 C 117.210938 129.5 117.304688 128.558594 117.488281 127.628906 C 117.675781 126.699219 117.949219 125.792969 118.3125 124.917969 C 118.675781 124.039062 119.121094 123.207031 119.648438 122.417969 C 120.175781 121.628906 120.777344 120.898438 121.449219 120.230469 C 122.117188 119.558594 122.847656 118.960938 123.640625 118.433594 C 124.429688 117.90625 125.261719 117.460938 126.140625 117.097656 C 127.015625 116.734375 127.921875 116.460938 128.851562 116.273438 C 129.785156 116.089844 130.726562 115.996094 131.675781 115.996094 C 132.625 115.996094 133.566406 116.089844 134.496094 116.273438 C 135.425781 116.460938 136.332031 116.734375 137.207031 117.097656 C 138.085938 117.460938 138.917969 117.90625 139.710938 118.433594 C 140.5 118.957031 141.230469 119.558594 141.902344 120.230469 C 142.574219 120.898438 143.171875 121.628906 143.699219 122.417969 C 144.226562 123.207031 144.671875 124.039062 145.035156 124.917969 C 145.398438 125.792969 145.671875 126.699219 145.859375 127.628906 C 146.042969 128.558594 146.136719 129.5 146.136719 130.449219 Z M 146.136719 130.449219 " fill-opacity="1" fill-rule="nonzero"/><path fill="#ffcebe" d="M 188.214844 50.273438 C 219.859375 50.273438 247.433594 81.011719 247.433594 119.597656 C 247.433594 158.1875 226.738281 190.277344 190.09375 189.511719 C 155.574219 188.789062 132.753906 158.1875 132.753906 119.597656 C 132.753906 81.011719 156.570312 50.273438 188.214844 50.273438 Z M 188.214844 50.273438 " fill-opacity="1" fill-rule="evenodd"/><path fill="#ffbaaf" d="M 232.058594 139.464844 C 232.058594 140.105469 231.976562 140.738281 231.816406 141.367188 C 231.652344 141.992188 231.414062 142.601562 231.097656 143.191406 C 230.78125 143.785156 230.390625 144.34375 229.929688 144.878906 C 229.472656 145.410156 228.949219 145.902344 228.363281 146.355469 C 227.773438 146.804688 227.136719 147.210938 226.449219 147.566406 C 225.757812 147.921875 225.03125 148.222656 224.265625 148.464844 C 223.5 148.710938 222.710938 148.894531 221.898438 149.019531 C 221.085938 149.144531 220.265625 149.207031 219.4375 149.207031 C 218.605469 149.207031 217.785156 149.144531 216.972656 149.019531 C 216.160156 148.894531 215.371094 148.710938 214.605469 148.464844 C 213.839844 148.222656 213.113281 147.921875 212.421875 147.566406 C 211.734375 147.210938 211.097656 146.804688 210.511719 146.355469 C 209.925781 145.902344 209.402344 145.410156 208.941406 144.878906 C 208.480469 144.34375 208.089844 143.785156 207.773438 143.191406 C 207.457031 142.601562 207.21875 141.992188 207.054688 141.367188 C 206.894531 140.738281 206.8125 140.105469 206.8125 139.464844 C 206.8125 138.824219 206.894531 138.191406 207.054688 137.5625 C 207.21875 136.9375 207.457031 136.328125 207.773438 135.734375 C 208.089844 135.144531 208.480469 134.582031 208.941406 134.050781 C 209.402344 133.519531 209.925781 133.027344 210.511719 132.574219 C 211.097656 132.121094 211.734375 131.71875 212.421875 131.363281 C 213.113281 131.007812 213.839844 130.707031 214.605469 130.464844 C 215.371094 130.21875 216.160156 130.035156 216.972656 129.910156 C 217.785156 129.785156 218.605469 129.722656 219.4375 129.722656 C 220.265625 129.722656 221.085938 129.785156 221.898438 129.910156 C 222.710938 130.035156 223.5 130.21875 224.265625 130.464844 C 225.03125 130.707031 225.757812 131.007812 226.449219 131.363281 C 227.136719 131.71875 227.773438 132.121094 228.363281 132.574219 C 228.949219 133.027344 229.472656 133.519531 229.929688 134.050781 C 230.390625 134.582031 230.78125 135.144531 231.097656 135.734375 C 231.414062 136.328125 231.652344 136.9375 231.816406 137.5625 C 231.976562 138.191406 232.058594 138.824219 232.058594 139.464844 Z M 232.058594 139.464844 " fill-opacity="1" fill-rule="nonzero"/><path fill="#ffbaaf" d="M 173.257812 139.464844 C 173.257812 140.105469 173.175781 140.738281 173.015625 141.367188 C 172.851562 141.992188 172.613281 142.601562 172.296875 143.191406 C 171.980469 143.785156 171.589844 144.34375 171.128906 144.878906 C 170.667969 145.410156 170.144531 145.902344 169.558594 146.355469 C 168.972656 146.804688 168.335938 147.210938 167.648438 147.566406 C 166.957031 147.921875 166.230469 148.222656 165.464844 148.464844 C 164.699219 148.710938 163.910156 148.894531 163.097656 149.019531 C 162.285156 149.144531 161.464844 149.207031 160.632812 149.207031 C 159.804688 149.207031 158.984375 149.144531 158.171875 149.019531 C 157.359375 148.894531 156.570312 148.710938 155.804688 148.464844 C 155.039062 148.222656 154.3125 147.921875 153.621094 147.566406 C 152.933594 147.210938 152.296875 146.804688 151.710938 146.355469 C 151.125 145.902344 150.601562 145.410156 150.140625 144.878906 C 149.679688 144.34375 149.289062 143.785156 148.972656 143.191406 C 148.65625 142.601562 148.417969 141.992188 148.253906 141.367188 C 148.09375 140.738281 148.011719 140.105469 148.011719 139.464844 C 148.011719 138.824219 148.09375 138.191406 148.253906 137.5625 C 148.417969 136.9375 148.65625 136.328125 148.972656 135.734375 C 149.289062 135.144531 149.679688 134.582031 150.140625 134.050781 C 150.601562 133.519531 151.125 133.027344 151.710938 132.574219 C 152.296875 132.121094 152.933594 131.71875 153.621094 131.363281 C 154.3125 131.007812 155.039062 130.707031 155.804688 130.464844 C 156.570312 130.21875 157.359375 130.035156 158.171875 129.910156 C 158.984375 129.785156 159.804688 129.722656 160.632812 129.722656 C 161.464844 129.722656 162.285156 129.785156 163.097656 129.910156 C 163.910156 130.035156 164.699219 130.21875 165.464844 130.464844 C 166.230469 130.707031 166.957031 131.007812 167.648438 131.363281 C 168.335938 131.71875 168.972656 132.121094 169.558594 132.574219 C 170.144531 133.027344 170.667969 133.519531 171.128906 134.050781 C 171.589844 134.582031 171.980469 135.144531 172.296875 135.734375 C 172.613281 136.328125 172.851562 136.9375 173.015625 137.5625 C 173.175781 138.191406 173.257812 138.824219 173.257812 139.464844 Z M 173.257812 139.464844 " fill-opacity="1" fill-rule="nonzero"/><path fill="#65403d" d="M 202.84375 105.003906 C 206.023438 102.617188 209.15625 101.457031 212.265625 101.492188 C 215.441406 101.539062 218.570312 102.8125 221.671875 105.164062 C 222.269531 105.613281 223.125 105.5 223.582031 104.90625 C 224.035156 104.308594 223.917969 103.457031 223.316406 103.003906 C 219.695312 100.25 216.011719 98.816406 212.300781 98.769531 C 208.644531 98.734375 204.941406 100.023438 201.203125 102.84375 C 200.601562 103.292969 200.480469 104.148438 200.933594 104.746094 C 201.386719 105.339844 202.242188 105.46875 202.84375 105.003906 Z M 202.84375 105.003906 " fill-opacity="1" fill-rule="evenodd"/><path fill="#65403d" d="M 178.984375 102.84375 C 175.246094 100.023438 171.539062 98.734375 167.886719 98.769531 C 164.171875 98.816406 160.492188 100.25 156.867188 103.003906 C 156.265625 103.457031 156.148438 104.308594 156.605469 104.90625 C 157.058594 105.5 157.914062 105.613281 158.511719 105.164062 C 161.613281 102.8125 164.742188 101.539062 167.917969 101.492188 C 171.027344 101.457031 174.160156 102.617188 177.339844 105.003906 C 177.941406 105.46875 178.796875 105.339844 179.25 104.746094 C 179.703125 104.148438 179.582031 103.292969 178.984375 102.84375 Z M 178.984375 102.84375 " fill-opacity="1" fill-rule="evenodd"/><path fill="#65403d" d="M 175.636719 149.492188 C 179.90625 152.46875 185.050781 153.996094 190.21875 153.90625 C 195.25 153.8125 200.304688 152.183594 204.589844 148.875 C 204.898438 148.632812 204.953125 148.195312 204.714844 147.878906 C 204.476562 147.574219 204.03125 147.515625 203.722656 147.757812 C 199.691406 150.882812 194.933594 152.410156 190.191406 152.484375 C 185.320312 152.574219 180.46875 151.140625 176.441406 148.347656 C 176.121094 148.121094 175.683594 148.195312 175.460938 148.511719 C 175.238281 148.84375 175.316406 149.28125 175.636719 149.492188 Z M 175.636719 149.492188 " fill-opacity="1" fill-rule="evenodd"/><path fill="#65403d" d="M 186.292969 127.53125 L 186.144531 138.707031 C 186.136719 139.101562 186.445312 139.417969 186.832031 139.433594 L 193.332031 139.585938 C 193.722656 139.585938 194.046875 139.28125 194.054688 138.890625 C 194.0625 138.496094 193.753906 138.179688 193.367188 138.164062 L 187.5625 138.027344 C 187.5625 138.027344 187.707031 127.558594 187.707031 127.558594 C 187.710938 127.167969 187.398438 126.851562 187.007812 126.835938 C 186.621094 126.835938 186.300781 127.152344 186.292969 127.53125 Z M 186.292969 127.53125 " fill-opacity="1" fill-rule="evenodd"/><path fill="#65403d" d="M 173.972656 121.238281 C 173.972656 121.636719 173.933594 122.027344 173.855469 122.417969 C 173.777344 122.804688 173.664062 123.183594 173.511719 123.550781 C 173.359375 123.917969 173.171875 124.265625 172.953125 124.59375 C 172.730469 124.925781 172.480469 125.230469 172.199219 125.511719 C 171.917969 125.789062 171.613281 126.039062 171.285156 126.261719 C 170.953125 126.480469 170.605469 126.667969 170.238281 126.820312 C 169.871094 126.972656 169.496094 127.085938 169.105469 127.164062 C 168.714844 127.242188 168.324219 127.277344 167.925781 127.28125 C 167.527344 127.277344 167.136719 127.242188 166.746094 127.164062 C 166.355469 127.085938 165.980469 126.972656 165.613281 126.820312 C 165.246094 126.667969 164.898438 126.480469 164.566406 126.261719 C 164.238281 126.039062 163.933594 125.789062 163.652344 125.511719 C 163.371094 125.230469 163.121094 124.925781 162.898438 124.59375 C 162.679688 124.265625 162.492188 123.917969 162.339844 123.550781 C 162.1875 123.183594 162.074219 122.804688 161.996094 122.417969 C 161.917969 122.027344 161.878906 121.636719 161.878906 121.238281 C 161.878906 120.84375 161.917969 120.449219 161.996094 120.058594 C 162.074219 119.671875 162.1875 119.292969 162.339844 118.925781 C 162.492188 118.558594 162.679688 118.210938 162.898438 117.882812 C 163.121094 117.550781 163.371094 117.246094 163.652344 116.96875 C 163.933594 116.6875 164.238281 116.4375 164.566406 116.214844 C 164.898438 115.996094 165.246094 115.808594 165.613281 115.65625 C 165.980469 115.503906 166.355469 115.390625 166.746094 115.3125 C 167.136719 115.238281 167.527344 115.199219 167.925781 115.199219 C 168.324219 115.199219 168.714844 115.238281 169.105469 115.3125 C 169.496094 115.390625 169.871094 115.503906 170.238281 115.65625 C 170.605469 115.808594 170.953125 115.996094 171.285156 116.214844 C 171.613281 116.4375 171.917969 116.6875 172.199219 116.96875 C 172.480469 117.246094 172.730469 117.550781 172.953125 117.882812 C 173.171875 118.210938 173.359375 118.558594 173.511719 118.925781 C 173.664062 119.292969 173.777344 119.671875 173.855469 120.058594 C 173.933594 120.449219 173.972656 120.84375 173.972656 121.238281 Z M 173.972656 121.238281 " fill-opacity="1" fill-rule="nonzero"/><path fill="#65403d" d="M 218.304688 121.238281 C 218.304688 121.636719 218.265625 122.027344 218.1875 122.417969 C 218.109375 122.804688 217.996094 123.183594 217.84375 123.550781 C 217.691406 123.917969 217.503906 124.265625 217.285156 124.59375 C 217.0625 124.925781 216.8125 125.230469 216.53125 125.511719 C 216.25 125.789062 215.945312 126.039062 215.617188 126.261719 C 215.285156 126.480469 214.9375 126.667969 214.570312 126.820312 C 214.203125 126.972656 213.824219 127.085938 213.4375 127.164062 C 213.046875 127.242188 212.65625 127.277344 212.257812 127.28125 C 211.859375 127.277344 211.46875 127.242188 211.078125 127.164062 C 210.6875 127.085938 210.3125 126.972656 209.945312 126.820312 C 209.578125 126.667969 209.230469 126.480469 208.898438 126.261719 C 208.570312 126.039062 208.261719 125.789062 207.984375 125.511719 C 207.703125 125.230469 207.453125 124.925781 207.230469 124.59375 C 207.011719 124.265625 206.824219 123.917969 206.671875 123.550781 C 206.519531 123.183594 206.40625 122.804688 206.328125 122.417969 C 206.25 122.027344 206.210938 121.636719 206.210938 121.238281 C 206.210938 120.84375 206.25 120.449219 206.328125 120.058594 C 206.40625 119.671875 206.519531 119.292969 206.671875 118.925781 C 206.824219 118.558594 207.011719 118.210938 207.230469 117.882812 C 207.453125 117.550781 207.703125 117.246094 207.984375 116.96875 C 208.261719 116.6875 208.570312 116.4375 208.898438 116.214844 C 209.230469 115.996094 209.578125 115.808594 209.945312 115.65625 C 210.3125 115.503906 210.6875 115.390625 211.078125 115.3125 C 211.46875 115.238281 211.859375 115.199219 212.257812 115.199219 C 212.65625 115.199219 213.046875 115.238281 213.4375 115.3125 C 213.824219 115.390625 214.203125 115.503906 214.570312 115.65625 C 214.9375 115.808594 215.285156 115.996094 215.617188 116.214844 C 215.945312 116.4375 216.25 116.6875 216.53125 116.96875 C 216.8125 117.246094 217.0625 117.550781 217.285156 117.882812 C 217.503906 118.210938 217.691406 118.558594 217.84375 118.925781 C 217.996094 119.292969 218.109375 119.671875 218.1875 120.058594 C 218.265625 120.449219 218.304688 120.84375 218.304688 121.238281 Z M 218.304688 121.238281 " fill-opacity="1" fill-rule="nonzero"/><path fill="#65403d" d="M 132.113281 126.371094 C 133.609375 126.410156 134.539062 113.738281 134.539062 113.738281 C 143.28125 108.109375 149.878906 85.359375 148.515625 75.144531 C 172.726562 90.394531 200.496094 93.707031 233.480469 79.53125 C 227.496094 88.835938 239.464844 114.625 246.363281 115.269531 C 246.363281 115.269531 246.121094 124.101562 249.75 125.628906 C 254.390625 127.578125 255.171875 112.375 254.765625 105.792969 C 253.695312 88.417969 242.902344 65.992188 239.058594 52.5625 C 239.058594 52.5625 174.988281 26.230469 158.761719 49.234375 L 125.09375 77.46875 C 125.09375 77.46875 123.945312 126.15625 132.113281 126.371094 Z M 132.113281 126.371094 " fill-opacity="1" fill-rule="evenodd"/><path fill="#65403d" d="M 150.851562 225.59375 L 181.234375 247.648438 C 181.613281 247.921875 182.128906 247.855469 182.429688 247.496094 L 191.773438 236.21875 C 191.773438 236.21875 198.679688 247.691406 198.679688 247.691406 C 198.816406 247.910156 199.027344 248.058594 199.285156 248.105469 C 199.527344 248.148438 199.785156 248.082031 199.980469 247.925781 L 229.304688 224.511719 C 229.683594 224.210938 229.757812 223.65625 229.441406 223.277344 C 229.140625 222.898438 228.59375 222.835938 228.21875 223.140625 L 199.675781 245.925781 C 199.675781 245.925781 192.632812 234.25 192.632812 234.25 C 192.480469 234.003906 192.226562 233.847656 191.9375 233.824219 C 191.664062 233.804688 191.378906 233.921875 191.195312 234.140625 L 181.597656 245.742188 C 177.140625 242.503906 151.878906 224.171875 151.878906 224.171875 C 151.484375 223.886719 150.941406 223.972656 150.65625 224.367188 C 150.367188 224.757812 150.457031 225.308594 150.851562 225.59375 Z M 150.851562 225.59375 " fill-opacity="1" fill-rule="evenodd"/></svg>