<svg xmlns="http://www.w3.org/2000/svg" xmlns:xlink="http://www.w3.org/1999/xlink" width="500" zoomAndPan="magnify" viewBox="0 0 375 374.999991" height="500" preserveAspectRatio="xMidYMid meet" version="1.0"><defs><clipPath id="33a93dc323"><path d="M 61.640625 209 L 313.640625 209 L 313.640625 375 L 61.640625 375 Z M 61.640625 209 " clip-rule="nonzero"/></clipPath><clipPath id="1e4239cf5a"><path d="M 61.640625 210 L 313.640625 210 L 313.640625 375 L 61.640625 375 Z M 61.640625 210 " clip-rule="nonzero"/></clipPath></defs><path fill="#65403d" d="M 186.894531 17.597656 C 144.871094 5.863281 95.558594 40.757812 98.507812 123.222656 C 99.511719 151.375 84.789062 158.335938 80.734375 172.003906 C 72.65625 199.207031 96.160156 215.648438 84.871094 235.21875 C 76.464844 249.792969 83.867188 285.679688 83.867188 285.679688 L 288.816406 281.46875 C 285.4375 266.488281 304.089844 259.226562 291.722656 234.507812 C 282.917969 216.898438 293.882812 198.003906 290.203125 176.132812 C 285.621094 148.910156 277.574219 152.976562 280.28125 124.589844 C 289.265625 30.429688 219.320312 0.0234375 186.894531 17.597656 Z M 186.894531 17.597656 " fill-opacity="1" fill-rule="evenodd"/><path fill="#ffcebe" d="M 211.230469 151.734375 L 164.351562 151.734375 L 164.351562 213.976562 L 164.71875 261.265625 L 189.1875 260.996094 L 210.929688 262.199219 L 211.230469 213.976562 Z M 211.230469 151.734375 " fill-opacity="1" fill-rule="evenodd"/><path fill="#65403d" d="M 211.535156 193.074219 L 211.222656 165.988281 C 198.128906 163.316406 171.75 159.535156 166.332031 178.390625 C 179.824219 191.339844 194.617188 192.015625 211.535156 193.074219 Z M 211.535156 193.074219 " fill-opacity="1" fill-rule="evenodd"/><g clip-path="url(#33a93dc323)"><path fill="#ffcebe" d="M 187.640625 209.449219 L 211.582031 209.65625 C 211.582031 209.65625 268.097656 236.191406 287.160156 257.421875 C 311.996094 285.082031 313.640625 374.480469 313.640625 374.480469 L 197.839844 374.902344 L 197.839844 374.976562 L 187.640625 374.9375 L 177.445312 374.976562 L 177.445312 374.902344 L 61.644531 374.480469 C 61.644531 374.480469 63.289062 285.082031 88.125 257.421875 C 107.1875 236.191406 163.703125 209.65625 163.703125 209.65625 Z M 187.640625 209.449219 " fill-opacity="1" fill-rule="evenodd"/></g><g clip-path="url(#1e4239cf5a)"><path fill="#ffe4e2" d="M 212.847656 210.257812 C 221.304688 214.3125 269.785156 238.066406 287.160156 257.417969 C 311.996094 285.082031 313.640625 374.476562 313.640625 374.476562 L 197.835938 374.898438 L 197.835938 374.972656 L 187.640625 374.9375 L 177.445312 374.972656 L 177.445312 374.898438 L 61.644531 374.476562 C 61.644531 374.476562 63.289062 285.082031 88.125 257.417969 C 105.410156 238.167969 153.480469 214.558594 162.300781 210.320312 L 185.3125 259.269531 Z M 212.847656 210.257812 " fill-opacity="1" fill-rule="evenodd"/></g><path fill="#e3bbb8" d="M 104.535156 312.671875 L 105.777344 371.984375 C 105.796875 372.855469 106.519531 373.550781 107.390625 373.53125 C 108.261719 373.511719 108.957031 372.789062 108.9375 371.921875 L 107.695312 312.609375 C 107.675781 311.738281 106.953125 311.042969 106.082031 311.0625 C 105.210938 311.082031 104.519531 311.804688 104.535156 312.671875 Z M 104.535156 312.671875 " fill-opacity="1" fill-rule="evenodd"/><path fill="#e3bbb8" d="M 274.289062 312.609375 L 273.042969 371.921875 C 273.027344 372.789062 273.71875 373.511719 274.589844 373.53125 C 275.460938 373.550781 276.183594 372.855469 276.203125 371.984375 L 277.445312 312.671875 C 277.464844 311.804688 276.773438 311.082031 275.898438 311.0625 C 275.027344 311.042969 274.304688 311.738281 274.289062 312.609375 Z M 274.289062 312.609375 " fill-opacity="1" fill-rule="evenodd"/><path fill="#ffcebe" d="M 264.117188 123.804688 C 264.117188 124.78125 264.023438 125.746094 263.832031 126.703125 C 263.640625 127.660156 263.359375 128.589844 262.984375 129.492188 C 262.613281 130.390625 262.152344 131.246094 261.613281 132.058594 C 261.070312 132.871094 260.453125 133.621094 259.761719 134.308594 C 259.070312 135 258.320312 135.617188 257.507812 136.15625 C 256.695312 136.699219 255.839844 137.15625 254.9375 137.53125 C 254.035156 137.902344 253.105469 138.183594 252.148438 138.375 C 251.191406 138.566406 250.222656 138.660156 249.246094 138.660156 C 248.269531 138.660156 247.304688 138.566406 246.34375 138.375 C 245.386719 138.183594 244.457031 137.902344 243.554688 137.53125 C 242.652344 137.15625 241.796875 136.699219 240.984375 136.15625 C 240.171875 135.617188 239.421875 135 238.730469 134.308594 C 238.039062 133.621094 237.421875 132.871094 236.878906 132.058594 C 236.339844 131.246094 235.878906 130.390625 235.507812 129.492188 C 235.132812 128.589844 234.851562 127.660156 234.660156 126.703125 C 234.46875 125.746094 234.375 124.78125 234.375 123.804688 C 234.375 122.832031 234.46875 121.863281 234.660156 120.90625 C 234.851562 119.949219 235.132812 119.023438 235.507812 118.121094 C 235.878906 117.21875 236.335938 116.363281 236.878906 115.550781 C 237.421875 114.742188 238.039062 113.992188 238.730469 113.300781 C 239.421875 112.613281 240.171875 111.996094 240.984375 111.453125 C 241.796875 110.914062 242.652344 110.453125 243.554688 110.082031 C 244.457031 109.707031 245.386719 109.425781 246.34375 109.234375 C 247.300781 109.046875 248.269531 108.949219 249.246094 108.949219 C 250.222656 108.949219 251.191406 109.046875 252.148438 109.234375 C 253.105469 109.425781 254.035156 109.707031 254.9375 110.082031 C 255.839844 110.453125 256.695312 110.910156 257.507812 111.453125 C 258.320312 111.996094 259.070312 112.613281 259.761719 113.300781 C 260.453125 113.992188 261.070312 114.742188 261.609375 115.550781 C 262.152344 116.363281 262.613281 117.21875 262.984375 118.121094 C 263.359375 119.023438 263.640625 119.949219 263.832031 120.90625 C 264.023438 121.863281 264.117188 122.832031 264.117188 123.804688 Z M 264.117188 123.804688 " fill-opacity="1" fill-rule="nonzero"/><path fill="#ffcebe" d="M 142.589844 123.804688 C 142.589844 124.78125 142.492188 125.746094 142.300781 126.703125 C 142.113281 127.660156 141.828125 128.589844 141.457031 129.492188 C 141.082031 130.390625 140.625 131.246094 140.082031 132.058594 C 139.539062 132.871094 138.921875 133.621094 138.234375 134.308594 C 137.542969 135 136.789062 135.617188 135.980469 136.15625 C 135.167969 136.699219 134.308594 137.15625 133.40625 137.53125 C 132.503906 137.902344 131.574219 138.183594 130.617188 138.375 C 129.660156 138.566406 128.691406 138.660156 127.71875 138.660156 C 126.738281 138.660156 125.773438 138.566406 124.816406 138.375 C 123.855469 138.183594 122.925781 137.902344 122.023438 137.53125 C 121.125 137.15625 120.265625 136.699219 119.453125 136.15625 C 118.640625 135.617188 117.890625 135 117.199219 134.308594 C 116.511719 133.621094 115.894531 132.871094 115.351562 132.058594 C 114.808594 131.246094 114.351562 130.390625 113.976562 129.492188 C 113.601562 128.589844 113.320312 127.660156 113.128906 126.703125 C 112.941406 125.746094 112.84375 124.78125 112.84375 123.804688 C 112.84375 122.832031 112.941406 121.863281 113.128906 120.90625 C 113.320312 119.949219 113.601562 119.023438 113.976562 118.121094 C 114.351562 117.21875 114.808594 116.363281 115.351562 115.550781 C 115.894531 114.742188 116.511719 113.992188 117.199219 113.300781 C 117.890625 112.613281 118.640625 111.996094 119.453125 111.453125 C 120.265625 110.914062 121.125 110.453125 122.023438 110.082031 C 122.925781 109.707031 123.855469 109.425781 124.816406 109.234375 C 125.773438 109.046875 126.738281 108.949219 127.71875 108.949219 C 128.691406 108.949219 129.660156 109.046875 130.617188 109.234375 C 131.574219 109.425781 132.503906 109.707031 133.40625 110.082031 C 134.308594 110.453125 135.167969 110.910156 135.980469 111.453125 C 136.789062 111.996094 137.542969 112.613281 138.234375 113.300781 C 138.921875 113.992188 139.539062 114.742188 140.082031 115.550781 C 140.625 116.363281 141.082031 117.21875 141.457031 118.121094 C 141.828125 119.023438 142.113281 119.949219 142.300781 120.90625 C 142.492188 121.863281 142.589844 122.832031 142.589844 123.804688 Z M 142.589844 123.804688 " fill-opacity="1" fill-rule="nonzero"/><path fill="#ffcebe" d="M 185.859375 41.386719 C 218.398438 41.386719 246.75 72.988281 246.75 112.648438 C 246.75 152.3125 225.46875 185.304688 187.789062 184.515625 C 152.292969 183.773438 128.828125 152.3125 128.828125 112.648438 C 128.828125 72.988281 153.316406 41.386719 185.859375 41.386719 Z M 185.859375 41.386719 " fill-opacity="1" fill-rule="evenodd"/><path fill="#ffbaaf" d="M 230.941406 133.070312 C 230.941406 133.726562 230.859375 134.378906 230.691406 135.023438 C 230.523438 135.667969 230.277344 136.296875 229.953125 136.902344 C 229.625 137.511719 229.226562 138.085938 228.753906 138.632812 C 228.28125 139.179688 227.742188 139.6875 227.140625 140.152344 C 226.535156 140.617188 225.882812 141.03125 225.171875 141.398438 C 224.464844 141.761719 223.714844 142.070312 222.929688 142.324219 C 222.140625 142.574219 221.328125 142.765625 220.492188 142.890625 C 219.65625 143.019531 218.8125 143.085938 217.960938 143.085938 C 217.109375 143.085938 216.265625 143.019531 215.429688 142.890625 C 214.59375 142.765625 213.78125 142.574219 212.996094 142.324219 C 212.207031 142.070312 211.460938 141.761719 210.75 141.398438 C 210.042969 141.03125 209.386719 140.617188 208.785156 140.152344 C 208.179688 139.6875 207.644531 139.179688 207.167969 138.632812 C 206.695312 138.085938 206.296875 137.511719 205.96875 136.902344 C 205.644531 136.296875 205.398438 135.667969 205.230469 135.023438 C 205.066406 134.378906 204.980469 133.726562 204.980469 133.070312 C 204.980469 132.414062 205.066406 131.761719 205.230469 131.117188 C 205.398438 130.472656 205.644531 129.84375 205.96875 129.238281 C 206.296875 128.628906 206.695312 128.054688 207.167969 127.507812 C 207.644531 126.960938 208.179688 126.453125 208.785156 125.988281 C 209.386719 125.523438 210.042969 125.109375 210.75 124.742188 C 211.460938 124.378906 212.207031 124.070312 212.996094 123.816406 C 213.78125 123.566406 214.59375 123.375 215.429688 123.246094 C 216.265625 123.121094 217.109375 123.054688 217.960938 123.054688 C 218.8125 123.054688 219.65625 123.121094 220.492188 123.246094 C 221.328125 123.375 222.140625 123.566406 222.929688 123.816406 C 223.714844 124.070312 224.464844 124.378906 225.171875 124.742188 C 225.882812 125.109375 226.535156 125.523438 227.140625 125.988281 C 227.742188 126.453125 228.28125 126.960938 228.753906 127.507812 C 229.226562 128.054688 229.625 128.628906 229.953125 129.238281 C 230.277344 129.84375 230.523438 130.472656 230.691406 131.117188 C 230.859375 131.761719 230.941406 132.414062 230.941406 133.070312 Z M 230.941406 133.070312 " fill-opacity="1" fill-rule="nonzero"/><path fill="#ffbaaf" d="M 170.476562 133.070312 C 170.476562 133.726562 170.390625 134.378906 170.226562 135.023438 C 170.058594 135.667969 169.8125 136.296875 169.488281 136.902344 C 169.160156 137.511719 168.761719 138.085938 168.289062 138.632812 C 167.816406 139.179688 167.277344 139.6875 166.675781 140.152344 C 166.070312 140.617188 165.414062 141.03125 164.707031 141.398438 C 164 141.761719 163.25 142.070312 162.464844 142.324219 C 161.675781 142.574219 160.863281 142.765625 160.027344 142.890625 C 159.191406 143.019531 158.347656 143.085938 157.496094 143.085938 C 156.644531 143.085938 155.800781 143.019531 154.964844 142.890625 C 154.128906 142.765625 153.316406 142.574219 152.527344 142.324219 C 151.742188 142.070312 150.992188 141.761719 150.285156 141.398438 C 149.578125 141.03125 148.921875 140.617188 148.316406 140.152344 C 147.714844 139.6875 147.175781 139.179688 146.703125 138.632812 C 146.230469 138.085938 145.832031 137.511719 145.503906 136.902344 C 145.179688 136.296875 144.933594 135.667969 144.765625 135.023438 C 144.601562 134.378906 144.515625 133.726562 144.515625 133.070312 C 144.515625 132.414062 144.601562 131.761719 144.765625 131.117188 C 144.933594 130.472656 145.179688 129.84375 145.503906 129.238281 C 145.832031 128.628906 146.230469 128.054688 146.703125 127.507812 C 147.175781 126.960938 147.714844 126.453125 148.316406 125.988281 C 148.921875 125.523438 149.578125 125.109375 150.285156 124.742188 C 150.992188 124.378906 151.742188 124.070312 152.527344 123.816406 C 153.316406 123.566406 154.128906 123.375 154.964844 123.246094 C 155.800781 123.121094 156.644531 123.054688 157.496094 123.054688 C 158.347656 123.054688 159.191406 123.121094 160.027344 123.246094 C 160.863281 123.375 161.675781 123.566406 162.464844 123.816406 C 163.25 124.070312 164 124.378906 164.707031 124.742188 C 165.414062 125.109375 166.070312 125.523438 166.675781 125.988281 C 167.277344 126.453125 167.816406 126.960938 168.289062 127.507812 C 168.761719 128.054688 169.160156 128.628906 169.488281 129.238281 C 169.8125 129.84375 170.058594 130.472656 170.226562 131.117188 C 170.390625 131.761719 170.476562 132.414062 170.476562 133.070312 Z M 170.476562 133.070312 " fill-opacity="1" fill-rule="nonzero"/><path fill="#65403d" d="M 200.898438 97.644531 C 204.167969 95.195312 207.390625 94.003906 210.585938 94.035156 C 213.855469 94.085938 217.070312 95.394531 220.261719 97.8125 C 220.875 98.273438 221.753906 98.160156 222.222656 97.546875 C 222.691406 96.933594 222.570312 96.054688 221.953125 95.59375 C 218.226562 92.761719 214.441406 91.285156 210.621094 91.238281 C 206.867188 91.203125 203.054688 92.527344 199.210938 95.425781 C 198.59375 95.890625 198.472656 96.769531 198.9375 97.378906 C 199.402344 97.992188 200.28125 98.125 200.898438 97.644531 Z M 200.898438 97.644531 " fill-opacity="1" fill-rule="evenodd"/><path fill="#65403d" d="M 176.363281 95.425781 C 172.519531 92.527344 168.707031 91.203125 164.953125 91.238281 C 161.132812 91.285156 157.347656 92.761719 153.621094 95.59375 C 153.003906 96.054688 152.882812 96.933594 153.351562 97.546875 C 153.820312 98.160156 154.699219 98.273438 155.3125 97.8125 C 158.503906 95.394531 161.71875 94.085938 164.988281 94.035156 C 168.183594 94.003906 171.40625 95.195312 174.675781 97.644531 C 175.292969 98.125 176.171875 97.992188 176.636719 97.378906 C 177.101562 96.769531 176.980469 95.890625 176.363281 95.425781 Z M 176.363281 95.425781 " fill-opacity="1" fill-rule="evenodd"/><path fill="#65403d" d="M 172.921875 143.378906 C 177.3125 146.4375 182.601562 148.007812 187.914062 147.914062 C 193.089844 147.820312 198.289062 146.144531 202.695312 142.742188 C 203.011719 142.496094 203.066406 142.042969 202.824219 141.71875 C 202.578125 141.40625 202.121094 141.34375 201.804688 141.59375 C 197.65625 144.808594 192.765625 146.375 187.890625 146.453125 C 182.878906 146.546875 177.890625 145.070312 173.75 142.199219 C 173.421875 141.964844 172.96875 142.042969 172.742188 142.371094 C 172.511719 142.710938 172.59375 143.164062 172.921875 143.378906 Z M 172.921875 143.378906 " fill-opacity="1" fill-rule="evenodd"/><path fill="#65403d" d="M 183.882812 120.804688 L 183.726562 132.292969 C 183.722656 132.695312 184.035156 133.023438 184.433594 133.039062 L 191.117188 133.195312 C 191.519531 133.195312 191.851562 132.882812 191.863281 132.480469 C 191.871094 132.074219 191.550781 131.75 191.152344 131.734375 L 185.1875 131.59375 C 185.1875 131.59375 185.332031 120.832031 185.332031 120.832031 C 185.339844 120.429688 185.019531 120.105469 184.617188 120.089844 C 184.21875 120.089844 183.886719 120.414062 183.882812 120.804688 Z M 183.882812 120.804688 " fill-opacity="1" fill-rule="evenodd"/><path fill="#65403d" d="M 171.210938 114.335938 C 171.210938 114.742188 171.171875 115.144531 171.089844 115.546875 C 171.011719 115.945312 170.894531 116.335938 170.738281 116.710938 C 170.582031 117.085938 170.390625 117.445312 170.164062 117.785156 C 169.933594 118.125 169.679688 118.4375 169.390625 118.726562 C 169.101562 119.015625 168.785156 119.269531 168.445312 119.496094 C 168.109375 119.722656 167.75 119.914062 167.371094 120.070312 C 166.996094 120.226562 166.605469 120.34375 166.207031 120.425781 C 165.804688 120.503906 165.402344 120.542969 164.992188 120.542969 C 164.585938 120.542969 164.179688 120.503906 163.78125 120.425781 C 163.378906 120.34375 162.992188 120.226562 162.613281 120.070312 C 162.238281 119.914062 161.878906 119.722656 161.539062 119.496094 C 161.199219 119.269531 160.886719 119.015625 160.597656 118.726562 C 160.308594 118.4375 160.050781 118.125 159.824219 117.785156 C 159.597656 117.445312 159.40625 117.085938 159.25 116.710938 C 159.09375 116.335938 158.976562 115.945312 158.898438 115.546875 C 158.816406 115.144531 158.777344 114.742188 158.777344 114.335938 C 158.777344 113.925781 158.816406 113.523438 158.898438 113.125 C 158.976562 112.722656 159.09375 112.335938 159.25 111.957031 C 159.40625 111.582031 159.597656 111.222656 159.824219 110.886719 C 160.050781 110.546875 160.308594 110.230469 160.597656 109.945312 C 160.886719 109.65625 161.199219 109.398438 161.539062 109.171875 C 161.878906 108.945312 162.238281 108.753906 162.613281 108.597656 C 162.992188 108.441406 163.378906 108.324219 163.78125 108.246094 C 164.179688 108.164062 164.585938 108.125 164.992188 108.125 C 165.402344 108.125 165.804688 108.164062 166.207031 108.246094 C 166.605469 108.324219 166.996094 108.441406 167.371094 108.597656 C 167.75 108.753906 168.109375 108.945312 168.445312 109.171875 C 168.785156 109.398438 169.101562 109.65625 169.390625 109.945312 C 169.679688 110.230469 169.933594 110.546875 170.164062 110.886719 C 170.390625 111.222656 170.582031 111.582031 170.738281 111.957031 C 170.894531 112.335938 171.011719 112.722656 171.089844 113.125 C 171.171875 113.523438 171.210938 113.925781 171.210938 114.335938 Z M 171.210938 114.335938 " fill-opacity="1" fill-rule="nonzero"/><path fill="#65403d" d="M 216.796875 114.335938 C 216.796875 114.742188 216.757812 115.144531 216.675781 115.546875 C 216.597656 115.945312 216.480469 116.335938 216.324219 116.710938 C 216.167969 117.085938 215.976562 117.445312 215.75 117.785156 C 215.523438 118.125 215.265625 118.4375 214.976562 118.726562 C 214.6875 119.015625 214.371094 119.269531 214.035156 119.496094 C 213.695312 119.722656 213.335938 119.914062 212.957031 120.070312 C 212.582031 120.226562 212.191406 120.34375 211.792969 120.425781 C 211.390625 120.503906 210.988281 120.542969 210.578125 120.542969 C 210.171875 120.542969 209.765625 120.503906 209.367188 120.425781 C 208.964844 120.34375 208.578125 120.226562 208.199219 120.070312 C 207.824219 119.914062 207.464844 119.722656 207.125 119.496094 C 206.785156 119.269531 206.472656 119.015625 206.183594 118.726562 C 205.894531 118.4375 205.636719 118.125 205.410156 117.785156 C 205.183594 117.445312 204.992188 117.085938 204.835938 116.710938 C 204.679688 116.335938 204.5625 115.945312 204.484375 115.546875 C 204.402344 115.144531 204.363281 114.742188 204.363281 114.335938 C 204.363281 113.925781 204.402344 113.523438 204.484375 113.125 C 204.5625 112.722656 204.679688 112.335938 204.835938 111.957031 C 204.992188 111.582031 205.183594 111.222656 205.410156 110.886719 C 205.636719 110.546875 205.894531 110.230469 206.183594 109.945312 C 206.472656 109.65625 206.785156 109.398438 207.125 109.171875 C 207.464844 108.945312 207.824219 108.753906 208.199219 108.597656 C 208.578125 108.441406 208.964844 108.324219 209.367188 108.246094 C 209.765625 108.164062 210.171875 108.125 210.578125 108.125 C 210.988281 108.125 211.390625 108.164062 211.792969 108.246094 C 212.191406 108.324219 212.582031 108.441406 212.957031 108.597656 C 213.335938 108.753906 213.695312 108.945312 214.035156 109.171875 C 214.371094 109.398438 214.6875 109.65625 214.976562 109.945312 C 215.265625 110.230469 215.523438 110.546875 215.75 110.886719 C 215.976562 111.222656 216.167969 111.582031 216.324219 111.957031 C 216.480469 112.335938 216.597656 112.722656 216.675781 113.125 C 216.757812 113.523438 216.796875 113.925781 216.796875 114.335938 Z M 216.796875 114.335938 " fill-opacity="1" fill-rule="nonzero"/><path fill="#65403d" d="M 128.167969 119.613281 C 132.535156 119.730469 131.085938 107.472656 131.085938 107.472656 C 129.292969 48.601562 184.867188 96.71875 187.78125 55.3125 C 194.941406 92.195312 238.320312 55.664062 243.046875 102.558594 C 243.046875 102.558594 241.972656 115.859375 246.800781 116.523438 C 251.929688 117.230469 254.707031 105.226562 254.289062 98.460938 C 253.191406 80.601562 242.09375 57.550781 238.140625 43.742188 C 238.140625 43.742188 172.253906 16.675781 155.570312 40.324219 L 120.949219 69.347656 C 120.949219 69.347656 119.765625 119.394531 128.167969 119.613281 Z M 128.167969 119.613281 " fill-opacity="1" fill-rule="evenodd"/></svg>